<!DOCTYPE svg PUBLIC "-//W3C//DTD SVG 20010904//EN" "http://www.w3.org/TR/2001/REC-SVG-20010904/DTD/svg10.dtd">
<svg version="1.0" xmlns="http://www.w3.org/2000/svg" width="1600px" height="725px" viewBox="0 0 16000 7250" preserveAspectRatio="xMidYMid meet">
<g id="layer101" fill="#000000" stroke="none">
 <path d="M0 3625 l0 -3625 8000 0 8000 0 0 3625 0 3625 -8000 0 -8000 0 0 -3625z"/>
 </g>
<g id="layer102" fill="#ff0000" stroke="none">
 <path d="M0 3625 l0 -3625 8000 0 8000 0 0 3625 0 3625 -8000 0 -8000 0 0 -3625z m8895 3531 c11 -8 30 -34 42 -58 35 -68 58 -85 135 -93 62 -6 70 -10 103 -46 29 -33 35 -46 35 -85 0 -99 40 -200 213 -544 93 -184 179 -350 190 -367 12 -18 43 -44 69 -58 60 -33 98 -78 98 -116 0 -51 -37 -143 -105 -259 -36 -62 -63 -115 -61 -118 3 -2 22 8 42 24 20 16 48 38 62 48 l25 20 -6 -110 c-3 -68 -13 -133 -26 -174 -11 -35 -18 -66 -15 -69 3 -3 36 28 74 69 l70 74 0 -75 c0 -72 -22 -254 -35 -294 -8 -22 25 9 82 80 l32 40 1 -58 c0 -32 -7 -106 -16 -165 -8 -59 -14 -145 -12 -192 l3 -85 115 -11 c63 -6 131 -15 150 -19 117 -25 234 -142 324 -322 53 -106 76 -209 76 -342 0 -53 9 -163 20 -246 22 -170 27 -335 9 -335 -24 0 -81 44 -113 86 -38 49 -46 44 -46 -29 0 -61 16 -108 76 -234 29 -61 56 -124 59 -140 4 -15 18 -53 31 -85 13 -31 29 -83 34 -115 6 -32 17 -85 25 -118 8 -33 16 -82 19 -109 6 -48 6 -48 -20 -42 -81 21 -143 70 -242 191 l-32 40 0 -30 c1 -50 40 -130 176 -355 132 -220 163 -282 164 -336 0 -26 -5 -32 -35 -41 -33 -10 -74 -6 -119 12 -28 12 -13 -11 74 -105 90 -98 121 -143 166 -235 53 -109 47 -121 -46 -85 -51 20 -90 26 -90 13 0 -3 21 -32 48 -62 115 -135 152 -222 152 -359 0 -78 -23 -163 -52 -189 -18 -16 -20 -16 -43 12 -13 17 -39 57 -57 90 l-32 60 -7 -30 c-4 -16 -17 -75 -28 -129 -31 -146 -71 -225 -150 -298 -36 -33 -82 -72 -103 -85 -39 -27 -172 -83 -194 -83 -21 0 -18 64 5 109 41 79 61 191 61 335 0 75 -2 136 -5 136 -3 0 -32 -20 -66 -45 -34 -25 -65 -45 -69 -45 -4 0 -10 46 -12 103 -4 75 -13 124 -33 184 -45 135 -54 137 -55 10 l0 -107 -34 -38 c-31 -32 -37 -35 -49 -22 -46 50 -206 240 -222 265 -10 17 -29 63 -40 103 l-22 74 -32 -51 c-36 -55 -87 -104 -104 -98 -23 7 -48 161 -54 334 l-6 173 -49 -42 c-57 -47 -119 -81 -130 -70 -19 19 -38 134 -38 228 0 189 41 290 180 439 36 38 74 81 85 94 l20 24 -71 -7 c-39 -4 -92 -13 -119 -22 -27 -8 -52 -11 -57 -6 -9 9 46 155 92 241 41 76 118 161 245 271 152 131 155 133 155 142 0 11 -94 -1 -144 -18 -21 -8 -47 -14 -57 -14 -17 0 -17 3 -2 53 8 28 21 63 28 77 18 35 111 126 217 213 l87 72 -42 3 c-56 3 -87 11 -87 21 0 4 31 43 68 87 85 98 100 124 151 252 35 87 41 114 41 175 0 84 -17 123 -69 162 -39 28 -86 32 -118 10 -11 -8 -31 -36 -43 -62 -39 -85 -171 -255 -285 -368 -97 -96 -367 -310 -547 -433 -25 -17 -78 -67 -118 -109 -61 -66 -84 -102 -147 -230 -58 -118 -80 -176 -99 -260 -13 -59 -30 -128 -36 -153 -16 -63 -23 -330 -9 -330 21 0 39 45 46 112 7 68 20 84 43 56 6 -7 22 -56 37 -108 26 -92 27 -102 22 -285 -2 -104 -8 -201 -12 -215 l-8 -25 27 25 c15 14 40 46 54 72 15 27 31 48 36 48 12 0 0 -324 -13 -367 -7 -25 -7 -33 3 -33 16 0 45 33 82 92 16 27 33 48 38 48 5 0 7 -63 4 -140 -2 -78 0 -140 4 -140 22 0 46 21 52 45 4 14 13 25 21 25 35 0 4 -226 -41 -309 -13 -24 -23 -45 -22 -45 2 -1 39 -19 83 -41 90 -44 204 -148 269 -247 38 -56 110 -253 100 -269 -3 -5 -69 -9 -147 -9 -102 0 -154 -5 -187 -16 -25 -9 -97 -18 -167 -21 l-123 -6 0 -61 c-1 -159 -36 -326 -69 -326 -11 0 -33 26 -78 92 -21 31 -69 93 -107 137 l-68 79 -218 4 -218 3 -133 67 c-74 37 -157 76 -184 87 -83 31 -239 61 -338 64 -89 2 -95 1 -175 -37 -94 -45 -96 -44 -108 33 -5 30 -1 61 10 95 35 111 79 150 216 191 76 23 100 25 273 25 l190 0 31 33 c35 37 56 103 56 174 l0 46 -285 -6 c-326 -7 -310 -12 -282 77 33 104 71 116 373 116 l202 0 7 66 c13 117 -3 159 -82 216 -28 21 -58 32 -90 35 -59 6 -196 -21 -241 -48 -18 -10 -37 -19 -43 -19 -5 0 -24 29 -41 65 l-32 65 -81 0 c-63 0 -91 5 -130 24 -62 29 -165 134 -165 168 0 44 14 48 182 48 87 0 158 4 158 9 0 5 -44 19 -97 31 -182 42 -224 66 -294 168 -17 23 -35 42 -42 42 -7 0 -105 -93 -218 -208 -146 -146 -262 -276 -397 -442 -297 -366 -306 -374 -444 -384 -109 -8 -362 25 -390 51 -20 18 -23 45 -8 74 8 14 7 25 -5 42 -17 27 -12 51 17 84 19 20 19 23 3 47 -20 30 -13 58 19 83 17 14 21 24 15 38 -14 38 -9 55 24 76 28 18 43 20 112 15 44 -3 100 -12 124 -20 26 -10 77 -16 125 -16 l81 0 61 78 c124 158 207 295 374 615 36 69 51 80 70 49 9 -15 11 -15 19 -2 51 80 118 175 128 178 7 2 15 -8 19 -23 3 -14 15 -30 25 -35 16 -9 24 2 68 94 28 57 73 131 101 165 28 34 49 61 48 62 -2 0 -12 2 -23 4 -142 22 -266 57 -330 95 -124 72 -231 104 -401 117 -77 6 -261 -33 -382 -81 -113 -45 -193 -53 -286 -29 -51 13 -74 25 -89 45 -19 26 -19 28 -2 54 16 25 16 28 1 36 -21 12 -22 100 -1 118 13 11 13 15 0 33 -22 32 -18 70 9 97 19 17 24 29 19 51 -11 55 3 59 180 59 159 0 160 0 248 -35 50 -20 132 -42 193 -51 96 -16 118 -16 248 -3 102 10 270 14 590 13 l446 -1 18 46 c9 25 30 72 45 105 16 32 29 59 29 61 0 1 -29 5 -65 7 -97 8 -157 42 -256 146 -77 80 -159 199 -159 229 0 10 11 8 40 -7 22 -11 40 -18 40 -16 0 3 -24 37 -53 76 -80 107 -119 249 -108 394 1 6 12 -5 25 -23 46 -62 91 -83 56 -26 -21 34 -22 45 -18 183 4 146 11 181 51 230 13 16 36 -15 49 -67 5 -20 13 -49 17 -66 l8 -30 8 40 c5 23 3 81 -4 140 -12 101 -8 138 20 183 l14 22 25 -24 c14 -13 53 -52 88 -87 l62 -62 0 136 c0 76 3 137 8 137 4 0 32 -27 61 -61 29 -33 55 -58 58 -56 10 10 -11 80 -33 113 -24 35 -31 69 -16 77 19 12 75 -8 111 -40 l41 -35 0 36 c0 49 -65 186 -145 306 -72 107 -207 246 -271 278 -101 51 -139 60 -216 51 -127 -14 -197 -11 -245 12 -62 30 -117 97 -137 167 -22 80 -21 108 7 129 20 15 22 21 14 44 -13 33 13 79 43 79 15 0 20 7 20 25 0 40 35 68 80 63 l37 -3 -4 35 c-6 44 19 69 74 77 42 5 88 -13 168 -67 22 -14 74 -39 117 -54 159 -57 214 -109 226 -211 4 -43 8 -46 266 -263 143 -121 281 -241 306 -266 l44 -46 86 0 c55 0 93 -5 104 -13 20 -15 46 -111 46 -174 0 -23 -7 -69 -16 -103 -12 -47 -15 -98 -12 -204 l3 -141 37 -56 c20 -31 42 -60 48 -64 21 -13 31 18 28 87 -3 64 -3 68 17 62 11 -3 34 -19 51 -36 33 -31 44 -27 59 22 26 85 132 248 206 314 29 26 84 66 123 88 92 54 272 138 295 138 31 0 141 80 172 124 15 23 43 61 61 86 l33 45 7 -40 c4 -22 7 -57 7 -77 1 -42 10 -46 52 -21 58 34 58 120 0 301 -40 125 -54 160 -130 325 -17 37 -31 70 -31 74 0 9 -71 100 -122 156 l-43 48 -95 -16 c-111 -20 -146 -13 -202 38 -25 23 -39 46 -44 73 -4 21 -15 50 -25 63 -31 39 -18 97 27 121 21 12 22 15 9 34 -29 40 -7 116 33 116 13 0 17 9 18 36 1 40 23 64 60 64 14 0 30 14 47 39 18 27 35 41 54 44 61 9 109 6 128 -7z"/>
 <path d="M7832 811 c-47 -19 -46 -31 3 -31 20 0 48 -12 73 -30 l41 -29 -6 37 c-5 35 -36 73 -58 71 -5 -1 -29 -9 -53 -18z"/>
 <path d="M8033 758 c-40 -13 -45 -34 -5 -22 15 5 51 8 80 8 33 0 51 3 49 10 -5 15 -84 17 -124 4z"/>
 </g>
<g id="layer103" fill="#ab4141" stroke="none">
 <path d="M8080 6061 c0 -1070 2 -1190 16 -1202 25 -20 35 7 32 83 -3 64 -3 68 17 62 11 -3 34 -19 51 -36 33 -31 44 -27 59 22 26 85 132 248 206 314 29 26 84 66 123 88 92 54 272 138 295 138 31 0 141 80 172 124 15 23 43 61 61 86 l33 45 7 -40 c4 -22 7 -57 7 -77 1 -42 10 -46 52 -21 58 34 58 120 0 301 -40 125 -54 160 -130 325 -17 37 -31 70 -31 74 0 9 -71 100 -122 156 l-43 48 -95 -16 c-111 -20 -146 -13 -202 38 -25 23 -39 46 -44 73 -4 21 -15 50 -25 63 -31 39 -18 97 27 121 21 12 22 15 9 34 -29 40 -7 116 33 116 13 0 17 9 18 36 1 40 23 64 60 64 14 0 30 13 47 39 20 30 34 39 64 44 97 17 126 5 160 -65 35 -68 58 -85 135 -93 62 -6 70 -10 103 -46 29 -33 35 -46 35 -85 0 -99 40 -200 213 -544 93 -184 179 -350 190 -367 12 -18 43 -44 69 -58 60 -33 98 -78 98 -116 0 -51 -37 -143 -105 -259 -36 -62 -63 -115 -61 -118 3 -2 22 8 42 24 20 16 48 38 62 48 l25 20 -6 -110 c-3 -68 -13 -133 -26 -174 -11 -35 -18 -66 -15 -69 3 -3 36 28 74 69 l70 74 0 -75 c0 -72 -22 -254 -35 -294 -8 -22 25 9 82 80 l32 40 1 -58 c0 -32 -7 -106 -16 -165 -8 -59 -14 -145 -12 -192 l3 -85 115 -11 c63 -6 131 -15 150 -19 117 -25 234 -142 324 -322 53 -106 76 -209 76 -342 0 -53 9 -163 20 -246 22 -170 27 -335 9 -335 -24 0 -81 44 -113 86 -38 49 -46 44 -46 -29 0 -61 16 -108 76 -234 29 -61 56 -124 59 -140 4 -15 18 -53 31 -85 13 -31 29 -83 34 -115 6 -32 17 -85 25 -118 8 -33 16 -82 19 -109 6 -48 6 -48 -20 -42 -81 21 -143 70 -242 191 l-32 40 0 -30 c1 -50 40 -130 176 -355 132 -220 163 -282 164 -336 0 -26 -5 -32 -35 -41 -33 -10 -74 -6 -119 12 -28 12 -13 -11 74 -105 90 -98 121 -143 166 -235 53 -109 47 -121 -46 -85 -51 20 -90 26 -90 13 0 -3 21 -32 48 -62 115 -135 152 -222 152 -359 0 -78 -23 -163 -52 -189 -18 -16 -20 -16 -43 12 -13 17 -39 57 -57 90 l-32 60 -7 -30 c-4 -16 -17 -75 -28 -129 -31 -146 -71 -225 -150 -298 -36 -33 -82 -72 -103 -85 -39 -27 -172 -83 -194 -83 -21 0 -18 64 5 109 41 79 61 191 61 335 0 75 -2 136 -5 136 -3 0 -32 -20 -66 -45 -34 -25 -65 -45 -69 -45 -4 0 -10 46 -12 103 -4 75 -13 124 -33 184 -45 135 -54 137 -55 10 l0 -107 -34 -38 c-31 -32 -37 -35 -49 -22 -46 50 -206 240 -222 265 -10 17 -29 63 -40 103 l-22 74 -32 -51 c-36 -55 -87 -104 -104 -98 -23 7 -48 161 -54 334 l-6 173 -49 -42 c-57 -47 -119 -81 -130 -70 -19 19 -38 134 -38 228 0 189 41 290 180 439 36 38 74 81 85 94 l20 24 -71 -7 c-39 -4 -92 -13 -119 -22 -27 -8 -52 -11 -57 -6 -9 9 46 155 92 241 41 76 118 161 245 271 152 131 155 133 155 142 0 11 -94 -1 -144 -18 -21 -8 -47 -14 -57 -14 -17 0 -17 3 -2 53 8 28 21 63 28 77 18 35 111 126 217 213 l87 72 -42 3 c-56 3 -87 11 -87 21 0 4 31 43 68 87 85 98 100 124 151 252 35 87 41 114 41 175 0 84 -17 123 -69 162 -39 28 -86 32 -118 10 -11 -8 -31 -36 -43 -62 -39 -85 -171 -255 -285 -368 -97 -96 -367 -310 -547 -433 -25 -17 -78 -67 -118 -109 -61 -66 -84 -102 -147 -230 -58 -118 -80 -176 -99 -260 -13 -59 -30 -128 -36 -153 -16 -63 -23 -330 -9 -330 21 0 39 45 46 113 7 67 20 83 43 55 6 -7 22 -56 37 -108 26 -92 27 -102 22 -285 -2 -104 -8 -201 -12 -215 l-8 -25 27 25 c15 14 40 46 54 72 15 27 31 48 36 48 12 0 0 -324 -13 -367 -7 -25 -7 -33 3 -33 16 0 45 33 82 92 16 27 33 48 38 48 5 0 7 -63 4 -140 -2 -78 0 -140 4 -140 22 0 46 21 52 45 4 14 13 25 21 25 35 0 4 -226 -41 -309 -13 -24 -23 -45 -22 -45 2 -1 39 -19 83 -41 90 -44 204 -148 269 -247 38 -56 110 -253 100 -269 -3 -5 -69 -9 -147 -9 -102 0 -154 -5 -187 -16 -25 -9 -97 -18 -167 -21 l-123 -6 0 -61 c-1 -159 -36 -326 -69 -326 -11 0 -33 26 -78 92 -21 31 -70 93 -107 137 l-69 81 -184 0 -183 0 0 -255 0 -255 3960 0 3960 0 0 3625 0 3625 -3960 0 -3960 0 0 -1189z"/>
 </g>
<g id="layer104" fill="#ffffff" stroke="none">
 <path d="M8097 7243 c-13 -12 -8 -2381 4 -2389 20 -12 30 20 27 88 -3 64 -3 68 17 62 11 -3 34 -19 51 -36 33 -31 44 -27 59 22 26 85 132 248 206 314 29 26 84 66 123 88 92 54 272 138 295 138 31 0 141 80 172 124 15 23 43 61 61 86 l33 45 7 -40 c4 -22 7 -57 7 -77 1 -42 10 -46 52 -21 58 34 58 120 0 301 -40 125 -54 160 -130 325 -17 37 -31 70 -31 74 0 9 -71 100 -122 156 l-43 48 -95 -16 c-111 -20 -146 -13 -202 38 -25 23 -39 46 -44 73 -4 21 -15 50 -25 63 -31 39 -18 97 27 121 21 12 22 15 9 34 -29 40 -7 116 33 116 13 0 17 9 18 36 1 40 23 64 60 64 14 0 30 13 47 39 20 30 34 39 64 44 97 17 126 5 160 -65 35 -68 58 -85 135 -93 62 -6 70 -10 103 -46 29 -33 35 -46 35 -85 0 -99 40 -200 213 -544 93 -184 179 -350 190 -367 12 -18 43 -44 69 -58 60 -33 98 -78 98 -116 0 -51 -37 -143 -105 -259 -36 -62 -63 -115 -61 -118 3 -2 22 8 42 24 20 16 48 38 62 48 l25 20 -6 -110 c-3 -68 -13 -133 -26 -174 -11 -35 -18 -66 -15 -69 3 -3 36 28 74 69 l70 74 0 -75 c0 -72 -22 -254 -35 -294 -8 -22 25 9 82 80 l32 40 1 -58 c0 -32 -7 -106 -16 -165 -8 -59 -14 -145 -12 -192 l3 -85 115 -11 c63 -6 131 -15 150 -19 117 -25 234 -142 324 -322 53 -106 76 -209 76 -342 0 -53 9 -163 20 -246 22 -170 27 -335 9 -335 -24 0 -81 44 -113 86 -38 49 -46 44 -46 -29 0 -61 16 -108 76 -234 29 -61 56 -124 59 -140 4 -15 18 -53 31 -85 13 -31 29 -83 34 -115 6 -32 17 -85 25 -118 8 -33 16 -82 19 -109 6 -48 6 -48 -20 -42 -81 21 -143 70 -242 191 l-32 40 0 -30 c1 -50 40 -130 176 -355 132 -220 163 -282 164 -336 0 -26 -5 -32 -35 -41 -33 -10 -74 -6 -119 12 -28 12 -13 -11 74 -105 90 -98 121 -143 166 -235 53 -109 47 -121 -46 -85 -51 20 -90 26 -90 13 0 -3 21 -32 48 -62 115 -135 152 -222 152 -359 0 -78 -23 -163 -52 -189 -18 -16 -20 -16 -43 12 -13 17 -39 57 -57 90 l-32 60 -7 -30 c-4 -16 -17 -75 -28 -129 -31 -146 -71 -225 -150 -298 -36 -33 -82 -72 -103 -85 -39 -27 -172 -83 -194 -83 -21 0 -18 64 5 109 41 79 61 191 61 335 0 75 -2 136 -5 136 -3 0 -32 -20 -66 -45 -34 -25 -65 -45 -69 -45 -4 0 -10 46 -12 102 -4 76 -13 125 -33 185 -45 135 -54 137 -55 10 l0 -107 -34 -38 c-31 -32 -37 -35 -49 -22 -46 50 -206 240 -222 265 -10 17 -29 63 -40 103 l-22 74 -32 -51 c-36 -55 -87 -104 -104 -98 -23 7 -48 161 -54 334 l-6 173 -49 -42 c-57 -47 -119 -81 -130 -70 -19 19 -38 134 -38 228 0 189 41 290 180 439 36 38 74 81 85 94 l20 24 -71 -7 c-39 -4 -92 -13 -119 -22 -27 -8 -52 -11 -57 -6 -9 9 46 155 92 241 41 76 118 161 245 271 152 131 155 133 155 142 0 11 -94 -1 -144 -18 -21 -8 -47 -14 -57 -14 -17 0 -17 3 -2 53 8 28 21 63 28 77 18 35 111 126 217 213 l87 72 -42 3 c-56 3 -87 11 -87 21 0 4 31 43 68 87 85 98 100 124 151 252 35 87 41 114 41 175 0 84 -17 123 -69 162 -39 28 -86 32 -118 10 -11 -8 -31 -36 -43 -62 -39 -85 -171 -255 -285 -368 -97 -96 -367 -310 -547 -433 -25 -17 -78 -67 -118 -109 -61 -66 -84 -102 -147 -230 -58 -118 -80 -176 -99 -260 -13 -59 -30 -128 -36 -153 -16 -63 -23 -330 -9 -330 21 0 39 45 46 112 7 68 20 84 43 55 6 -6 22 -55 37 -107 26 -92 27 -102 22 -285 -2 -104 -8 -201 -12 -215 l-8 -25 27 25 c15 14 40 46 54 72 15 27 31 48 36 48 12 0 0 -324 -13 -367 -7 -25 -7 -33 3 -33 16 0 45 33 82 92 16 27 33 48 38 48 5 0 7 -63 4 -140 -2 -78 0 -140 4 -140 22 0 46 21 52 45 4 14 13 25 21 25 35 0 4 -226 -41 -309 -13 -24 -23 -45 -22 -45 2 -1 39 -19 83 -41 90 -44 204 -148 269 -247 38 -56 110 -253 100 -269 -3 -5 -69 -9 -147 -9 -102 0 -154 -5 -187 -16 -25 -9 -97 -18 -167 -21 l-123 -6 0 -61 c-1 -159 -36 -326 -69 -326 -11 0 -33 26 -78 92 -21 31 -70 93 -107 137 l-69 81 -179 0 -178 0 2 -252 3 -253 3953 -3 3952 -2 0 3625 0 3625 -3948 0 c-2172 0 -3952 -3 -3955 -7z"/>
 </g>

</svg>